<svg xmlns="http://www.w3.org/2000/svg" viewBox="0 0 170 800" width="170" height="800">
  <rect width="170" height="800" fill="none"/>
  <!-- Eucalyptus branch with round leaves -->
  <g opacity="0.85">
    <!-- Main branch -->
    <path d="M40 790 Q50 760 60 730 Q68 700 75 670 Q80 640 82 610 Q84 580 83 550 Q82 520 85 490"
          stroke="#7A8A6A" stroke-width="4" fill="none" stroke-linecap="round"/>
    <!-- Branch texture -->
    <path d="M48 765 Q55 745 62 725" stroke="#8B9A7A" stroke-width="0.8" fill="none" opacity="0.3"/>

    <!-- Secondary branch right -->
    <path d="M78 640 Q95 620 110 605 Q125 592 140 582 Q150 575 158 570"
          stroke="#7A8A6A" stroke-width="3" fill="none" stroke-linecap="round"/>

    <!-- Secondary branch left -->
    <path d="M82 570 Q65 555 48 545 Q35 538 22 535"
          stroke="#7A8A6A" stroke-width="3" fill="none" stroke-linecap="round"/>

    <!-- Upper branch -->
    <path d="M85 490 Q90 470 95 450 Q98 435 95 415"
          stroke="#7A8A6A" stroke-width="2.5" fill="none" stroke-linecap="round"/>
    <path d="M93 450 Q108 438 122 430 Q135 425 145 428"
          stroke="#7A8A6A" stroke-width="2" fill="none" stroke-linecap="round"/>
    <path d="M87 475 Q72 462 58 455 Q45 450 35 452"
          stroke="#7A8A6A" stroke-width="2" fill="none" stroke-linecap="round"/>

    <!-- Round eucalyptus leaves along main stem -->
    <!-- Lower leaves (larger) -->
    <circle cx="52" cy="748" r="12" fill="#8B9A7A" opacity="0.55" stroke="#7A8A6A" stroke-width="0.5"/>
    <line x1="52" y1="738" x2="52" y2="758" stroke="#7A8A6A" stroke-width="0.5" opacity="0.3"/>
    <circle cx="65" cy="720" r="11" fill="#7A8A6A" opacity="0.55" stroke="#8B9A7A" stroke-width="0.5"/>
    <line x1="65" y1="710" x2="65" y2="730" stroke="#8B9A7A" stroke-width="0.5" opacity="0.3"/>
    <circle cx="58" cy="690" r="12" fill="#8B9A7A" opacity="0.5" stroke="#7A8A6A" stroke-width="0.5"/>
    <line x1="58" y1="680" x2="58" y2="700" stroke="#7A8A6A" stroke-width="0.5" opacity="0.3"/>
    <circle cx="72" cy="662" r="11" fill="#7A8A6A" opacity="0.55" stroke="#8B9A7A" stroke-width="0.5"/>
    <line x1="72" y1="652" x2="72" y2="672" stroke="#8B9A7A" stroke-width="0.5" opacity="0.3"/>

    <!-- Leaves on right branch -->
    <circle cx="98" cy="618" r="10" fill="#8B9A7A" opacity="0.5" stroke="#7A8A6A" stroke-width="0.5"/>
    <line x1="98" y1="609" x2="98" y2="627" stroke="#7A8A6A" stroke-width="0.5" opacity="0.3"/>
    <circle cx="115" cy="600" r="10" fill="#7A8A6A" opacity="0.55" stroke="#8B9A7A" stroke-width="0.5"/>
    <line x1="115" y1="591" x2="115" y2="609" stroke="#8B9A7A" stroke-width="0.5" opacity="0.3"/>
    <circle cx="132" cy="588" r="9" fill="#8B9A7A" opacity="0.5" stroke="#7A8A6A" stroke-width="0.5"/>
    <line x1="132" y1="580" x2="132" y2="596" stroke="#7A8A6A" stroke-width="0.5" opacity="0.3"/>
    <circle cx="148" cy="575" r="9" fill="#7A8A6A" opacity="0.5" stroke="#8B9A7A" stroke-width="0.5"/>
    <line x1="148" y1="567" x2="148" y2="583" stroke="#8B9A7A" stroke-width="0.5" opacity="0.3"/>

    <!-- Leaves on left branch -->
    <circle cx="68" cy="558" r="10" fill="#7A8A6A" opacity="0.5" stroke="#8B9A7A" stroke-width="0.5"/>
    <line x1="68" y1="549" x2="68" y2="567" stroke="#8B9A7A" stroke-width="0.5" opacity="0.3"/>
    <circle cx="50" cy="545" r="9" fill="#8B9A7A" opacity="0.5" stroke="#7A8A6A" stroke-width="0.5"/>
    <line x1="50" y1="537" x2="50" y2="553" stroke="#7A8A6A" stroke-width="0.5" opacity="0.3"/>
    <circle cx="35" cy="538" r="9" fill="#7A8A6A" opacity="0.5" stroke="#8B9A7A" stroke-width="0.5"/>
    <line x1="35" y1="530" x2="35" y2="546" stroke="#8B9A7A" stroke-width="0.5" opacity="0.3"/>

    <!-- Mid-stem leaves -->
    <circle cx="88" cy="600" r="10" fill="#8B9A7A" opacity="0.5" stroke="#7A8A6A" stroke-width="0.5"/>
    <line x1="88" y1="591" x2="88" y2="609" stroke="#7A8A6A" stroke-width="0.5" opacity="0.3"/>
    <circle cx="78" cy="580" r="9" fill="#7A8A6A" opacity="0.5" stroke="#8B9A7A" stroke-width="0.5"/>
    <line x1="78" y1="572" x2="78" y2="588" stroke="#8B9A7A" stroke-width="0.5" opacity="0.3"/>
    <circle cx="85" cy="540" r="9" fill="#8B9A7A" opacity="0.5" stroke="#7A8A6A" stroke-width="0.5"/>
    <line x1="85" y1="532" x2="85" y2="548" stroke="#7A8A6A" stroke-width="0.5" opacity="0.3"/>
    <circle cx="80" cy="510" r="8" fill="#7A8A6A" opacity="0.5" stroke="#8B9A7A" stroke-width="0.5"/>
    <line x1="80" y1="503" x2="80" y2="517" stroke="#8B9A7A" stroke-width="0.5" opacity="0.3"/>

    <!-- Upper leaves (smaller) -->
    <circle cx="88" cy="480" r="8" fill="#8B9A7A" opacity="0.5" stroke="#7A8A6A" stroke-width="0.5"/>
    <circle cx="92" cy="458" r="7" fill="#7A8A6A" opacity="0.5" stroke="#8B9A7A" stroke-width="0.5"/>
    <circle cx="95" cy="438" r="7" fill="#8B9A7A" opacity="0.5" stroke="#7A8A6A" stroke-width="0.5"/>
    <circle cx="94" cy="420" r="6" fill="#7A8A6A" opacity="0.5" stroke="#8B9A7A" stroke-width="0.5"/>

    <!-- Upper branch leaves -->
    <circle cx="110" cy="435" r="8" fill="#8B9A7A" opacity="0.45" stroke="#7A8A6A" stroke-width="0.5"/>
    <circle cx="125" cy="430" r="7" fill="#7A8A6A" opacity="0.45" stroke="#8B9A7A" stroke-width="0.5"/>
    <circle cx="140" cy="428" r="7" fill="#8B9A7A" opacity="0.45" stroke="#7A8A6A" stroke-width="0.5"/>
    <circle cx="62" cy="460" r="8" fill="#7A8A6A" opacity="0.45" stroke="#8B9A7A" stroke-width="0.5"/>
    <circle cx="48" cy="454" r="7" fill="#8B9A7A" opacity="0.45" stroke="#7A8A6A" stroke-width="0.5"/>
    <circle cx="38" cy="452" r="6" fill="#7A8A6A" opacity="0.45" stroke="#8B9A7A" stroke-width="0.5"/>

    <!-- Eucalyptus buds -->
    <circle cx="90" cy="640" r="3" fill="#7A8A6A" opacity="0.6"/>
    <circle cx="76" cy="650" r="2.5" fill="#8B9A7A" opacity="0.5"/>
    <circle cx="84" cy="560" r="2.5" fill="#7A8A6A" opacity="0.5"/>
  </g>

  <!-- Dev identification -->
  <text x="85" y="792" text-anchor="middle" font-family="monospace" font-size="8" fill="#7A8A6A" opacity="0.5">eucalyptus</text>
</svg>