<svg xmlns="http://www.w3.org/2000/svg" viewBox="0 0 170 800" width="170" height="800">
  <rect width="170" height="800" fill="none"/>
  <!-- Fern with unfurling fronds -->
  <g opacity="0.85">
    <!-- Base/root cluster -->
    <ellipse cx="85" cy="785" rx="25" ry="10" fill="#7A8A6A" opacity="0.4"/>

    <!-- Main frond 1 - center, tallest -->
    <path d="M85 780 Q84 740 83 700 Q82 660 84 620 Q85 580 84 540 Q83 500 85 460 Q86 420 85 380"
          stroke="#7A8A6A" stroke-width="3" fill="none" stroke-linecap="round"/>
    <!-- Pinnae pairs for frond 1 -->
    <g fill="#8B9A7A" opacity="0.7">
      <path d="M84 760 Q70 748 62 740 Q58 738 62 735 Q70 738 84 755"/>
      <path d="M86 760 Q100 748 108 740 Q112 738 108 735 Q100 738 86 755"/>
      <path d="M83 730 Q68 718 58 710 Q54 708 58 705 Q68 708 83 725"/>
      <path d="M87 730 Q102 718 112 710 Q116 708 112 705 Q102 708 87 725"/>
      <path d="M83 700 Q65 688 55 680 Q50 678 55 675 Q65 678 83 695"/>
      <path d="M87 700 Q105 688 115 680 Q120 678 115 675 Q105 678 87 695"/>
      <path d="M84 670 Q66 658 54 648 Q50 646 54 643 Q66 648 84 665"/>
      <path d="M86 670 Q104 658 116 648 Q120 646 116 643 Q104 648 86 665"/>
      <path d="M84 640 Q68 628 56 618 Q52 616 56 613 Q68 618 84 635"/>
      <path d="M86 640 Q102 628 114 618 Q118 616 114 613 Q102 618 86 635"/>
      <path d="M84 610 Q70 598 60 590 Q56 588 60 585 Q70 590 84 605"/>
      <path d="M86 610 Q100 598 110 590 Q114 588 110 585 Q100 590 86 605"/>
      <path d="M85 580 Q72 568 64 562 Q60 560 64 557 Q72 562 85 575"/>
      <path d="M85 580 Q98 568 106 562 Q110 560 106 557 Q98 562 85 575"/>
      <path d="M85 550 Q74 540 68 534 Q65 532 68 530 Q74 534 85 545"/>
      <path d="M85 550 Q96 540 102 534 Q105 532 102 530 Q96 534 85 545"/>
      <path d="M85 520 Q76 512 72 508 Q70 506 72 504 Q76 508 85 516"/>
      <path d="M85 520 Q94 512 98 508 Q100 506 98 504 Q94 508 85 516"/>
      <path d="M85 490 Q78 484 75 480 Q74 478 76 477 Q78 480 85 486"/>
      <path d="M85 490 Q92 484 95 480 Q96 478 94 477 Q92 480 85 486"/>
      <path d="M85 460 Q80 456 78 453 Q77 452 78 451 Q80 453 85 457"/>
      <path d="M85 460 Q90 456 92 453 Q93 452 92 451 Q90 453 85 457"/>
    </g>

    <!-- Frond 2 - left, arching -->
    <path d="M80 780 Q68 740 55 700 Q45 665 35 630 Q28 600 22 570 Q18 545 20 520"
          stroke="#7A8A6A" stroke-width="2.5" fill="none" stroke-linecap="round"/>
    <!-- Pinnae for frond 2 -->
    <g fill="#7A8A6A" opacity="0.65">
      <path d="M72 740 Q58 730 50 724 Q47 722 50 720 Q58 724 72 735"/>
      <path d="M60 700 Q46 690 38 684 Q35 682 38 680 Q46 684 60 695"/>
      <path d="M48 665 Q36 656 28 650 Q25 648 28 646 Q36 650 48 660"/>
      <path d="M38 632 Q28 624 22 620 Q19 618 22 616 Q28 620 38 628"/>
      <path d="M30 602 Q22 596 18 592 Q16 590 18 588 Q22 592 30 598"/>
      <path d="M24 575 Q18 570 15 566 Q14 564 16 563 Q18 566 24 572"/>
      <path d="M22 548 Q17 544 14 540 Q13 538 15 537 Q17 540 22 545"/>
    </g>

    <!-- Frond 3 - right, arching -->
    <path d="M90 780 Q102 742 115 705 Q125 672 135 640 Q142 612 148 585 Q152 562 150 540"
          stroke="#7A8A6A" stroke-width="2.5" fill="none" stroke-linecap="round"/>
    <!-- Pinnae for frond 3 -->
    <g fill="#7A8A6A" opacity="0.65">
      <path d="M100 745 Q114 735 122 728 Q125 726 122 724 Q114 728 100 740"/>
      <path d="M112 708 Q126 698 134 692 Q137 690 134 688 Q126 692 112 703"/>
      <path d="M122 675 Q134 666 142 660 Q145 658 142 656 Q134 660 122 670"/>
      <path d="M132 642 Q142 634 148 628 Q150 626 148 624 Q142 628 132 638"/>
      <path d="M140 614 Q148 608 152 604 Q154 602 152 600 Q148 604 140 610"/>
      <path d="M146 588 Q152 582 155 578 Q156 576 154 575 Q152 578 146 585"/>
    </g>

    <!-- Unfurling fiddlehead (young frond) -->
    <path d="M78 780 Q76 770 75 760 Q74 750 75 740"
          stroke="#8B9A7A" stroke-width="2" fill="none" stroke-linecap="round"/>
    <path d="M75 740 Q74 735 76 730 Q80 726 84 728 Q86 732 84 736 Q80 738 76 736"
          stroke="#8B9A7A" stroke-width="2" fill="none" stroke-linecap="round"/>

    <!-- Second fiddlehead -->
    <path d="M92 780 Q94 772 95 764 Q96 756 95 748"
          stroke="#8B9A7A" stroke-width="1.8" fill="none" stroke-linecap="round"/>
    <path d="M95 748 Q96 744 94 740 Q90 737 87 740 Q86 744 88 746 Q92 748 94 745"
          stroke="#8B9A7A" stroke-width="1.8" fill="none" stroke-linecap="round"/>
  </g>

  <!-- Dev identification -->
  <text x="85" y="792" text-anchor="middle" font-family="monospace" font-size="8" fill="#7A8A6A" opacity="0.5">fern</text>
</svg>