<svg xmlns="http://www.w3.org/2000/svg" viewBox="0 0 170 800" fill="none">
  <path d="M85 800 L85 380 Q83 360 85 340" stroke="#7A8A6A" stroke-width="4" fill="none"/>
  <path d="M85 500 Q75 480 70 450" stroke="#7A8A6A" stroke-width="3" fill="none"/>
  <path d="M85 440 Q95 420 100 390" stroke="#7A8A6A" stroke-width="3" fill="none"/>
  <path d="M85 380 Q60 360 45 320 Q35 290 40 260 Q45 240 55 235 Q65 230 75 240 Q80 250 82 270 Q83 300 85 340" fill="#7A8A6A" opacity="0.6"/>
  <path d="M85 380 Q110 360 125 320 Q135 290 130 260 Q125 240 115 235 Q105 230 95 240 Q90 250 88 270 Q87 300 85 340" fill="#8B9A7A" opacity="0.5"/>
  <path d="M70 450 Q45 430 30 395 Q20 365 25 335 Q30 315 42 310 Q52 305 60 315 Q65 325 67 345 Q68 375 70 420" fill="#7A8A6A" opacity="0.55"/>
  <path d="M100 390 Q125 370 140 335 Q150 305 145 275 Q140 255 128 250 Q118 245 110 255 Q105 265 103 285 Q102 315 100 360" fill="#8B9A7A" opacity="0.45"/>
  <path d="M85 500 Q55 480 40 445 Q28 415 33 385 Q38 365 50 360 Q60 355 68 365 Q73 375 74 395 Q75 425 78 470" fill="#6A7A5A" opacity="0.5"/>
  <text x="85" y="790" text-anchor="middle" font-family="sans-serif" font-size="8" fill="#7A8A6A" opacity="0.5">fiddle-leaf</text>
</svg>
