<svg xmlns="http://www.w3.org/2000/svg" viewBox="0 0 170 800" width="170" height="800">
  <rect width="170" height="800" fill="none"/>
  <!-- Palm tree trunk and fronds -->
  <g opacity="0.85">
    <!-- Trunk -->
    <path d="M85 800 Q84 770 83 740 Q82 710 84 680 Q85 650 84 620 Q83 590 85 560 Q86 530 85 500 Q84 470 85 440"
          stroke="#7A8A6A" stroke-width="12" fill="none" stroke-linecap="round"/>
    <!-- Trunk ring texture -->
    <line x1="78" y1="780" x2="92" y2="778" stroke="#8B9A7A" stroke-width="1" opacity="0.4"/>
    <line x1="77" y1="760" x2="93" y2="758" stroke="#8B9A7A" stroke-width="1" opacity="0.4"/>
    <line x1="77" y1="740" x2="93" y2="738" stroke="#8B9A7A" stroke-width="1" opacity="0.35"/>
    <line x1="78" y1="720" x2="92" y2="718" stroke="#8B9A7A" stroke-width="1" opacity="0.35"/>
    <line x1="77" y1="700" x2="93" y2="698" stroke="#8B9A7A" stroke-width="1" opacity="0.35"/>
    <line x1="78" y1="680" x2="92" y2="678" stroke="#8B9A7A" stroke-width="1" opacity="0.3"/>
    <line x1="77" y1="660" x2="93" y2="658" stroke="#8B9A7A" stroke-width="1" opacity="0.3"/>
    <line x1="78" y1="640" x2="92" y2="638" stroke="#8B9A7A" stroke-width="1" opacity="0.3"/>
    <line x1="77" y1="620" x2="93" y2="618" stroke="#8B9A7A" stroke-width="1" opacity="0.3"/>
    <line x1="78" y1="600" x2="92" y2="598" stroke="#8B9A7A" stroke-width="1" opacity="0.25"/>
    <line x1="77" y1="580" x2="93" y2="578" stroke="#8B9A7A" stroke-width="1" opacity="0.25"/>
    <line x1="78" y1="560" x2="92" y2="558" stroke="#8B9A7A" stroke-width="1" opacity="0.25"/>
    <line x1="77" y1="540" x2="93" y2="538" stroke="#8B9A7A" stroke-width="1" opacity="0.25"/>
    <line x1="78" y1="520" x2="92" y2="518" stroke="#8B9A7A" stroke-width="1" opacity="0.2"/>
    <line x1="77" y1="500" x2="93" y2="498" stroke="#8B9A7A" stroke-width="1" opacity="0.2"/>
    <line x1="78" y1="480" x2="92" y2="478" stroke="#8B9A7A" stroke-width="1" opacity="0.2"/>
    <line x1="77" y1="460" x2="93" y2="458" stroke="#8B9A7A" stroke-width="1" opacity="0.2"/>

    <!-- Crown shaft -->
    <path d="M85 445 Q83 438 85 430" stroke="#8B9A7A" stroke-width="8" fill="none" stroke-linecap="round" opacity="0.6"/>

    <!-- Frond 1 - drooping right -->
    <path d="M85 435 Q100 420 120 410 Q140 402 155 400 Q160 400 165 405"
          stroke="#7A8A6A" stroke-width="2.5" fill="none" stroke-linecap="round"/>
    <!-- Frond 1 leaflets -->
    <g fill="#8B9A7A" opacity="0.6">
      <path d="M100 418 Q108 408 115 405 Q118 406 115 410 Q108 415 100 418Z"/>
      <path d="M100 420 Q106 428 112 430 Q114 428 110 424 Q105 420 100 420Z"/>
      <path d="M115 412 Q124 402 130 400 Q132 401 130 405 Q124 410 115 412Z"/>
      <path d="M115 414 Q122 422 128 424 Q130 422 126 418 Q120 414 115 414Z"/>
      <path d="M130 406 Q140 398 146 396 Q148 397 146 400 Q140 405 130 406Z"/>
      <path d="M130 408 Q137 415 143 416 Q144 414 141 411 Q136 408 130 408Z"/>
      <path d="M145 402 Q153 396 158 395 Q160 396 158 399 Q153 402 145 402Z"/>
      <path d="M145 404 Q152 410 156 411 Q157 409 155 407 Q150 404 145 404Z"/>
    </g>

    <!-- Frond 2 - drooping left -->
    <path d="M85 435 Q70 418 50 408 Q30 400 15 398 Q8 398 5 402"
          stroke="#7A8A6A" stroke-width="2.5" fill="none" stroke-linecap="round"/>
    <g fill="#7A8A6A" opacity="0.6">
      <path d="M70 420 Q62 410 55 408 Q53 409 55 412 Q62 416 70 420Z"/>
      <path d="M70 422 Q64 430 58 432 Q56 430 59 426 Q64 422 70 422Z"/>
      <path d="M55 412 Q46 404 40 402 Q38 403 40 406 Q46 410 55 412Z"/>
      <path d="M55 414 Q48 421 42 422 Q40 420 43 417 Q48 414 55 414Z"/>
      <path d="M40 406 Q32 400 26 398 Q24 399 26 402 Q32 405 40 406Z"/>
      <path d="M40 408 Q34 414 28 415 Q27 413 29 411 Q34 408 40 408Z"/>
      <path d="M26 402 Q19 398 14 397 Q12 398 14 400 Q19 402 26 402Z"/>
    </g>

    <!-- Frond 3 - upward right -->
    <path d="M85 432 Q105 415 125 395 Q140 380 148 368 Q152 360 150 355"
          stroke="#7A8A6A" stroke-width="2.5" fill="none" stroke-linecap="round"/>
    <g fill="#8B9A7A" opacity="0.55">
      <path d="M105 415 Q115 405 120 400 Q122 401 120 404 Q114 410 105 415Z"/>
      <path d="M105 417 Q112 422 117 422 Q118 420 115 418 Q110 416 105 417Z"/>
      <path d="M122 400 Q130 390 135 386 Q137 387 135 390 Q130 395 122 400Z"/>
      <path d="M122 402 Q128 406 132 406 Q133 404 130 402 Q126 400 122 402Z"/>
      <path d="M137 385 Q143 378 147 375 Q148 376 147 379 Q143 383 137 385Z"/>
      <path d="M137 387 Q142 390 145 390 Q146 388 144 387 Q140 386 137 387Z"/>
    </g>

    <!-- Frond 4 - upward left -->
    <path d="M85 432 Q65 415 45 398 Q30 385 22 372 Q18 365 20 360"
          stroke="#7A8A6A" stroke-width="2.5" fill="none" stroke-linecap="round"/>
    <g fill="#7A8A6A" opacity="0.55">
      <path d="M65 415 Q55 406 50 402 Q48 403 50 406 Q56 412 65 415Z"/>
      <path d="M65 417 Q58 422 53 422 Q52 420 55 418 Q60 416 65 417Z"/>
      <path d="M48 402 Q40 394 35 390 Q33 391 35 394 Q40 398 48 402Z"/>
      <path d="M48 404 Q42 408 38 408 Q37 406 39 405 Q44 403 48 404Z"/>
      <path d="M33 392 Q27 385 23 382 Q22 383 23 386 Q27 390 33 392Z"/>
    </g>

    <!-- Frond 5 - center upward -->
    <path d="M85 430 Q86 408 88 385 Q90 365 88 348 Q86 335 85 325"
          stroke="#8B9A7A" stroke-width="2" fill="none" stroke-linecap="round"/>
    <g fill="#8B9A7A" opacity="0.5">
      <path d="M87 400 Q95 392 98 388 Q99 389 97 392 Q93 397 87 400Z"/>
      <path d="M87 400 Q79 393 76 390 Q75 391 77 394 Q81 398 87 400Z"/>
      <path d="M88 375 Q94 368 96 365 Q97 366 95 369 Q92 373 88 375Z"/>
      <path d="M88 375 Q82 369 80 366 Q79 367 81 370 Q84 373 88 375Z"/>
      <path d="M87 352 Q92 347 94 344 Q95 345 93 348 Q90 351 87 352Z"/>
      <path d="M87 352 Q82 348 80 345 Q79 346 81 349 Q84 351 87 352Z"/>
    </g>

    <!-- Coconuts -->
    <circle cx="80" cy="440" r="5" fill="#7A8A6A" opacity="0.7"/>
    <circle cx="90" cy="442" r="5" fill="#7A8A6A" opacity="0.65"/>
    <circle cx="85" cy="445" r="4.5" fill="#8B9A7A" opacity="0.6"/>
  </g>

  <!-- Dev identification -->
  <text x="85" y="792" text-anchor="middle" font-family="monospace" font-size="8" fill="#7A8A6A" opacity="0.5">palm</text>
</svg>