<svg xmlns="http://www.w3.org/2000/svg" viewBox="0 0 1200 900" fill="none">
  <g stroke="#5C6148" fill="#5C6148" fill-opacity="0.1" stroke-width="1.2" stroke-linecap="round" stroke-linejoin="round">
    <!-- Fern frond 1 - cascading from top-left -->
    <g transform="translate(200, -20)">
      <!-- Main stem -->
      <path d="M0,0 C20,80 50,200 60,350 C70,500 60,650 40,780" stroke-width="2" fill="none"/>
      <!-- Left pinnae -->
      <path d="M10,40 C-20,30 -60,50 -80,80 C-50,70 -20,60 10,60" />
      <path d="M20,90 C-20,80 -70,100 -100,140 C-60,125 -20,115 25,110" />
      <path d="M28,140 C-15,130 -80,155 -120,200 C-70,180 -15,168 35,162" />
      <path d="M35,195 C-10,185 -85,210 -130,260 C-75,240 -10,225 42,218" />
      <path d="M42,255 C0,245 -80,268 -135,320 C-75,300 -5,282 48,278" />
      <path d="M48,320 C10,310 -70,330 -125,380 C-65,360 5,345 52,340" />
      <path d="M52,390 C15,380 -60,400 -110,445 C-55,428 10,412 55,408" />
      <path d="M55,460 C25,452 -45,468 -90,505 C-40,492 20,478 56,475" />
      <path d="M54,530 C30,524 -30,536 -65,565 C-25,555 25,544 54,542" />
      <path d="M50,600 C32,595 -15,604 -40,625 C-10,618 28,610 48,608" />
      <!-- Right pinnae -->
      <path d="M15,50 C45,35 85,45 110,75 C80,68 45,62 18,65" />
      <path d="M25,100 C60,85 110,95 145,130 C105,118 60,110 30,115" />
      <path d="M33,150 C75,135 130,148 170,190 C125,172 70,162 38,168" />
      <path d="M40,205 C85,190 145,200 190,245 C140,228 80,218 45,225" />
      <path d="M48,265 C90,250 150,260 195,305 C145,288 85,278 52,284" />
      <path d="M53,330 C92,318 148,325 188,365 C140,350 88,342 56,348" />
      <path d="M56,400 C90,388 140,395 175,430 C132,418 85,410 58,416" />
      <path d="M57,470 C85,460 128,465 158,495 C120,485 80,478 58,484" />
      <path d="M55,540 C78,532 112,536 135,558 C105,550 75,546 55,550" />
    </g>

    <!-- Fern frond 2 - cascading from top-right -->
    <g transform="translate(850, 30) scale(-0.9, 0.9)">
      <path d="M0,0 C20,80 50,200 60,350 C70,500 60,650 40,780" stroke-width="2" fill="none"/>
      <path d="M10,40 C-20,30 -60,50 -80,80 C-50,70 -20,60 10,60" />
      <path d="M20,90 C-20,80 -70,100 -100,140 C-60,125 -20,115 25,110" />
      <path d="M28,140 C-15,130 -80,155 -120,200 C-70,180 -15,168 35,162" />
      <path d="M35,195 C-10,185 -85,210 -130,260 C-75,240 -10,225 42,218" />
      <path d="M42,255 C0,245 -80,268 -135,320 C-75,300 -5,282 48,278" />
      <path d="M48,320 C10,310 -70,330 -125,380 C-65,360 5,345 52,340" />
      <path d="M52,390 C15,380 -60,400 -110,445 C-55,428 10,412 55,408" />
      <path d="M55,460 C25,452 -45,468 -90,505 C-40,492 20,478 56,475" />
      <path d="M54,530 C30,524 -30,536 -65,565 C-25,555 25,544 54,542" />
      <path d="M15,50 C45,35 85,45 110,75 C80,68 45,62 18,65" />
      <path d="M25,100 C60,85 110,95 145,130 C105,118 60,110 30,115" />
      <path d="M33,150 C75,135 130,148 170,190 C125,172 70,162 38,168" />
      <path d="M40,205 C85,190 145,200 190,245 C140,228 80,218 45,225" />
      <path d="M48,265 C90,250 150,260 195,305 C145,288 85,278 52,284" />
      <path d="M53,330 C92,318 148,325 188,365 C140,350 88,342 56,348" />
      <path d="M56,400 C90,388 140,395 175,430 C132,418 85,410 58,416" />
    </g>

    <!-- Fern frond 3 - center, smaller -->
    <g transform="translate(550, 100) scale(0.7)">
      <path d="M0,0 C15,70 40,180 50,310 C55,420 45,530 30,640" stroke-width="2" fill="none"/>
      <path d="M8,50 C-15,42 -50,55 -70,80 C-42,72 -15,65 12,62" />
      <path d="M18,110 C-12,100 -58,115 -85,150 C-50,138 -12,128 22,125" />
      <path d="M25,175 C-5,165 -60,180 -95,220 C-55,205 -5,192 30,190" />
      <path d="M32,245 C5,238 -50,250 -85,285 C-45,272 5,260 35,258" />
      <path d="M36,320 C12,314 -40,324 -70,352 C-35,342 12,332 38,330" />
      <path d="M12,60 C35,48 70,55 92,80 C65,72 38,66 15,70" />
      <path d="M22,120 C50,108 90,118 118,148 C85,138 48,130 26,135" />
      <path d="M30,185 C60,175 105,182 135,215 C100,202 58,194 34,200" />
      <path d="M35,255 C62,246 100,252 125,280 C95,270 58,264 38,268" />
      <path d="M38,330 C58,322 88,328 108,350 C82,342 55,338 40,340" />
    </g>
  </g>

  <text x="600" y="885" text-anchor="middle" fill="#5C6148" fill-opacity="0.3" font-family="sans-serif" font-size="11">fern</text>
</svg>