<svg xmlns="http://www.w3.org/2000/svg" viewBox="0 0 1200 900" fill="none">
  <g stroke="#5C6148" fill="#5C6148" fill-opacity="0.1" stroke-width="1.3" stroke-linecap="round" stroke-linejoin="round">
    <!-- Fiddle leaf 1 - large, left side -->
    <g transform="translate(250, 100)">
      <!-- Leaf shape - wide at top, narrow waist, wide again -->
      <path d="M0,350 C0,340 -5,320 -8,300 C-15,260 -40,230 -65,200 C-85,175 -95,145 -95,110 C-95,80 -85,55 -65,35 C-40,10 -15,-5 0,-15 C15,-5 40,10 65,35 C85,55 95,80 95,110 C95,145 85,175 65,200 C40,230 15,260 8,300 C5,320 0,340 0,350" />
      <!-- Central vein -->
      <path d="M0,-15 L0,350" stroke-width="2" fill="none"/>
      <!-- Side veins -->
      <path d="M0,20 C-25,10 -55,15 -75,30" stroke-width="1" fill="none"/>
      <path d="M0,20 C25,10 55,15 75,30" stroke-width="1" fill="none"/>
      <path d="M0,65 C-30,55 -60,58 -85,70" stroke-width="1" fill="none"/>
      <path d="M0,65 C30,55 60,58 85,70" stroke-width="1" fill="none"/>
      <path d="M0,110 C-28,102 -58,105 -90,115" stroke-width="1" fill="none"/>
      <path d="M0,110 C28,102 58,105 90,115" stroke-width="1" fill="none"/>
      <path d="M0,160 C-22,155 -48,160 -72,175" stroke-width="1" fill="none"/>
      <path d="M0,160 C22,155 48,160 72,175" stroke-width="1" fill="none"/>
      <path d="M0,210 C-15,208 -30,215 -48,228" stroke-width="1" fill="none"/>
      <path d="M0,210 C15,208 30,215 48,228" stroke-width="1" fill="none"/>
      <!-- Stem -->
      <path d="M0,350 C2,400 5,480 3,560" stroke-width="2.5" fill="none"/>
    </g>

    <!-- Fiddle leaf 2 - medium, right side -->
    <g transform="translate(800, 180) scale(0.85) rotate(8)">
      <path d="M0,350 C0,340 -5,320 -8,300 C-15,260 -40,230 -65,200 C-85,175 -95,145 -95,110 C-95,80 -85,55 -65,35 C-40,10 -15,-5 0,-15 C15,-5 40,10 65,35 C85,55 95,80 95,110 C95,145 85,175 65,200 C40,230 15,260 8,300 C5,320 0,340 0,350" />
      <path d="M0,-15 L0,350" stroke-width="2" fill="none"/>
      <path d="M0,20 C-25,10 -55,15 -75,30" stroke-width="1" fill="none"/>
      <path d="M0,20 C25,10 55,15 75,30" stroke-width="1" fill="none"/>
      <path d="M0,65 C-30,55 -60,58 -85,70" stroke-width="1" fill="none"/>
      <path d="M0,65 C30,55 60,58 85,70" stroke-width="1" fill="none"/>
      <path d="M0,110 C-28,102 -58,105 -90,115" stroke-width="1" fill="none"/>
      <path d="M0,110 C28,102 58,105 90,115" stroke-width="1" fill="none"/>
      <path d="M0,160 C-22,155 -48,160 -72,175" stroke-width="1" fill="none"/>
      <path d="M0,160 C22,155 48,160 72,175" stroke-width="1" fill="none"/>
      <path d="M0,210 C-15,208 -30,215 -48,228" stroke-width="1" fill="none"/>
      <path d="M0,210 C15,208 30,215 48,228" stroke-width="1" fill="none"/>
      <path d="M0,350 C2,400 5,470 3,540" stroke-width="2.5" fill="none"/>
    </g>

    <!-- Fiddle leaf 3 - smaller, center -->
    <g transform="translate(520, 350) scale(0.65) rotate(-5)">
      <path d="M0,350 C0,340 -5,320 -8,300 C-15,260 -40,230 -65,200 C-85,175 -95,145 -95,110 C-95,80 -85,55 -65,35 C-40,10 -15,-5 0,-15 C15,-5 40,10 65,35 C85,55 95,80 95,110 C95,145 85,175 65,200 C40,230 15,260 8,300 C5,320 0,340 0,350" />
      <path d="M0,-15 L0,350" stroke-width="2" fill="none"/>
      <path d="M0,20 C-25,10 -55,15 -75,30" stroke-width="1" fill="none"/>
      <path d="M0,20 C25,10 55,15 75,30" stroke-width="1" fill="none"/>
      <path d="M0,65 C-30,55 -60,58 -85,70" stroke-width="1" fill="none"/>
      <path d="M0,65 C30,55 60,58 85,70" stroke-width="1" fill="none"/>
      <path d="M0,110 C-28,102 -58,105 -90,115" stroke-width="1" fill="none"/>
      <path d="M0,110 C28,102 58,105 90,115" stroke-width="1" fill="none"/>
      <path d="M0,160 C-22,155 -48,160 -72,175" stroke-width="1" fill="none"/>
      <path d="M0,160 C22,155 48,160 72,175" stroke-width="1" fill="none"/>
      <path d="M0,350 C2,390 4,440 2,500" stroke-width="2.5" fill="none"/>
    </g>

    <!-- Fiddle leaf 4 - small accent, far right -->
    <g transform="translate(1050, 400) scale(0.5) rotate(12)">
      <path d="M0,350 C0,340 -5,320 -8,300 C-15,260 -40,230 -65,200 C-85,175 -95,145 -95,110 C-95,80 -85,55 -65,35 C-40,10 -15,-5 0,-15 C15,-5 40,10 65,35 C85,55 95,80 95,110 C95,145 85,175 65,200 C40,230 15,260 8,300 C5,320 0,340 0,350" />
      <path d="M0,-15 L0,350" stroke-width="2.2" fill="none"/>
      <path d="M0,30 C-25,20 -50,25 -70,38" stroke-width="1" fill="none"/>
      <path d="M0,30 C25,20 50,25 70,38" stroke-width="1" fill="none"/>
      <path d="M0,80 C-28,72 -55,76 -82,88" stroke-width="1" fill="none"/>
      <path d="M0,80 C28,72 55,76 82,88" stroke-width="1" fill="none"/>
      <path d="M0,140 C-22,135 -45,140 -65,152" stroke-width="1" fill="none"/>
      <path d="M0,140 C22,135 45,140 65,152" stroke-width="1" fill="none"/>
      <path d="M0,350 C1,385 3,420 2,460" stroke-width="2.5" fill="none"/>
    </g>

    <!-- Converging stems at bottom -->
    <path d="M253,660 C260,720 270,780 285,830" stroke-width="2.5" fill="none"/>
    <path d="M808,680 C800,730 790,780 775,830" stroke-width="2.5" fill="none"/>
    <path d="M520,675 C525,720 530,775 535,830" stroke-width="2" fill="none"/>
  </g>

  <text x="600" y="885" text-anchor="middle" fill="#5C6148" fill-opacity="0.3" font-family="sans-serif" font-size="11">fiddle-leaf</text>
</svg>