<svg xmlns="http://www.w3.org/2000/svg" viewBox="0 0 1200 900" fill="none">
  <g stroke="#5C6148" fill="#5C6148" fill-opacity="0.1" stroke-width="1.3" stroke-linecap="round" stroke-linejoin="round">
    <!-- Palm frond 1 - top left, fanning right -->
    <g transform="translate(80, 350)">
      <!-- Central rachis -->
      <path d="M0,0 C80,-40 200,-100 350,-140 C500,-170 650,-165 800,-130" stroke-width="2.5" fill="none"/>
      <!-- Left leaflets -->
      <path d="M60,-25 C40,-70 30,-120 25,-170 C50,-130 65,-80 70,-30" fill-opacity="0.08"/>
      <path d="M130,-55 C110,-105 95,-158 85,-210 C115,-170 135,-115 140,-60" fill-opacity="0.08"/>
      <path d="M210,-80 C190,-135 175,-192 165,-248 C195,-205 218,-148 220,-85" fill-opacity="0.08"/>
      <path d="M300,-105 C282,-162 268,-222 260,-280 C290,-238 312,-178 310,-110" fill-opacity="0.08"/>
      <path d="M400,-125 C385,-182 375,-245 370,-305 C398,-262 415,-198 408,-130" fill-opacity="0.08"/>
      <path d="M510,-140 C498,-195 492,-258 490,-318 C515,-275 528,-210 518,-145" fill-opacity="0.08"/>
      <path d="M620,-145 C612,-198 610,-260 612,-318 C632,-278 640,-215 628,-150" fill-opacity="0.08"/>
      <path d="M720,-135 C718,-185 720,-242 728,-295 C740,-255 742,-195 728,-140" fill-opacity="0.08"/>
      <!-- Right leaflets -->
      <path d="M80,-15 C65,30 55,82 52,135 C72,92 82,42 85,-18" fill-opacity="0.08"/>
      <path d="M160,-45 C145,5 132,60 125,118 C150,72 162,18 165,-48" fill-opacity="0.08"/>
      <path d="M250,-75 C235,-22 225,38 220,98 C248,48 260,-10 255,-78" fill-opacity="0.08"/>
      <path d="M350,-100 C338,-48 328,12 325,72 C352,22 362,-38 358,-102" fill-opacity="0.08"/>
      <path d="M460,-118 C450,-68 442,-10 440,48 C465,0 472,-58 468,-120" fill-opacity="0.08"/>
      <path d="M570,-130 C562,-82 558,-28 558,28 C580,-18 585,-75 578,-132" fill-opacity="0.08"/>
      <path d="M680,-132 C675,-88 672,-38 675,15 C692,-28 695,-82 688,-135" fill-opacity="0.08"/>
    </g>

    <!-- Palm frond 2 - top right, fanning left -->
    <g transform="translate(1120, 280) scale(-1, 1)">
      <path d="M0,0 C80,-30 200,-75 340,-100 C480,-115 600,-105 720,-70" stroke-width="2.5" fill="none"/>
      <path d="M55,-18 C38,-58 28,-105 25,-150 C48,-115 60,-68 62,-22" fill-opacity="0.08"/>
      <path d="M125,-42 C108,-88 95,-138 88,-190 C115,-152 130,-100 132,-48" fill-opacity="0.08"/>
      <path d="M205,-62 C188,-112 178,-168 172,-222 C198,-182 215,-128 212,-68" fill-opacity="0.08"/>
      <path d="M295,-78 C280,-130 272,-188 268,-245 C292,-205 305,-148 302,-82" fill-opacity="0.08"/>
      <path d="M395,-90 C382,-142 378,-202 378,-258 C400,-220 408,-158 402,-95" fill-opacity="0.08"/>
      <path d="M500,-95 C492,-145 490,-205 495,-260 C512,-222 515,-162 508,-100" fill-opacity="0.08"/>
      <path d="M600,-88 C598,-135 600,-192 608,-242 C618,-205 618,-148 608,-92" fill-opacity="0.08"/>
      <path d="M75,-8 C62,35 52,82 50,130 C68,88 78,40 80,-12" fill-opacity="0.08"/>
      <path d="M155,-32 C142,15 132,65 130,118 C150,75 160,22 158,-35" fill-opacity="0.08"/>
      <path d="M245,-52 C235,-5 225,48 225,100 C248,55 258,0 252,-55" fill-opacity="0.08"/>
      <path d="M345,-68 C335,-22 330,30 330,82 C352,38 358,-18 352,-70" fill-opacity="0.08"/>
      <path d="M450,-78 C442,-35 438,15 440,62 C458,22 462,-30 458,-80" fill-opacity="0.08"/>
      <path d="M555,-82 C550,-42 548,5 552,48 C565,12 568,-38 562,-85" fill-opacity="0.08"/>
    </g>

    <!-- Palm frond 3 - smaller, center bottom -->
    <g transform="translate(450, 550) scale(0.6)">
      <path d="M0,0 C70,-35 180,-85 310,-115 C440,-135 560,-120 680,-82" stroke-width="3" fill="none"/>
      <path d="M50,-20 C35,-60 28,-108 25,-155 C48,-118 58,-68 55,-25" fill-opacity="0.08"/>
      <path d="M130,-48 C115,-95 105,-148 100,-200 C125,-162 138,-110 135,-52" fill-opacity="0.08"/>
      <path d="M220,-68 C208,-118 200,-175 198,-228 C222,-190 232,-135 228,-72" fill-opacity="0.08"/>
      <path d="M320,-85 C310,-138 305,-198 305,-252 C328,-215 335,-155 325,-90" fill-opacity="0.08"/>
      <path d="M430,-92 C422,-145 422,-205 428,-255 C445,-218 445,-158 438,-95" fill-opacity="0.08"/>
      <path d="M540,-88 C538,-138 542,-195 550,-242 C560,-205 558,-148 548,-92" fill-opacity="0.08"/>
      <path d="M70,-10 C58,32 50,80 48,128 C68,88 76,38 75,-14" fill-opacity="0.08"/>
      <path d="M160,-38 C148,8 140,58 138,110 C158,68 168,18 165,-42" fill-opacity="0.08"/>
      <path d="M260,-58 C250,-12 242,42 242,92 C262,50 270,-5 265,-62" fill-opacity="0.08"/>
      <path d="M370,-72 C362,-28 358,22 360,68 C378,30 382,-22 375,-75" fill-opacity="0.08"/>
      <path d="M480,-78 C475,-38 472,10 478,52 C490,18 492,-32 488,-80" fill-opacity="0.08"/>
    </g>
  </g>

  <text x="600" y="885" text-anchor="middle" fill="#5C6148" fill-opacity="0.3" font-family="sans-serif" font-size="11">palm</text>
</svg>