<svg xmlns="http://www.w3.org/2000/svg" viewBox="0 0 1200 900" fill="none">
  <g stroke="#5C6148" fill="#5C6148" fill-opacity="0.1" stroke-width="1.3" stroke-linecap="round" stroke-linejoin="round">
    <!-- Large rosette succulent - center -->
    <g transform="translate(600, 400)">
      <!-- Center bud -->
      <ellipse cx="0" cy="0" rx="18" ry="22" fill-opacity="0.15"/>
      <!-- Inner petals -->
      <path d="M0,-20 C15,-45 10,-80 0,-100 C-10,-80 -15,-45 0,-20" />
      <path d="M18,-8 C42,-25 72,-30 95,-22 C75,-12 45,-5 18,-8" />
      <path d="M15,14 C38,32 55,62 55,88 C38,72 22,42 15,14" />
      <path d="M-5,20 C-18,48 -42,70 -65,78 C-48,55 -22,32 -5,20" />
      <path d="M-18,-5 C-45,-15 -72,-8 -92,8 C-68,12 -40,8 -18,-5" />
      <!-- Middle petals -->
      <path d="M8,-25 C35,-70 25,-130 5,-165 C-15,-130 -20,-70 8,-25" />
      <path d="M25,-2 C65,-30 115,-35 152,-20 C118,-2 68,8 25,-2" />
      <path d="M20,18 C55,50 80,105 78,148 C50,115 30,60 20,18" />
      <path d="M-8,25 C-30,68 -68,108 -105,125 C-78,85 -38,45 -8,25" />
      <path d="M-22,2 C-62,18 -108,10 -145,-8 C-108,-20 -60,-12 -22,2" />
      <!-- Outer petals -->
      <path d="M-10,-30 C-5,-95 15,-165 -5,-220 C-25,-165 -30,-95 -10,-30" />
      <path d="M15,-28 C55,-85 100,-120 148,-130 C110,-90 62,-55 15,-28" />
      <path d="M28,5 C85,-15 148,-10 200,12 C152,22 88,18 28,5" />
      <path d="M25,22 C72,55 112,115 120,175 C82,132 45,70 25,22" />
      <path d="M5,28 C8,88 -10,155 -35,205 C-42,148 -22,82 5,28" />
      <path d="M-15,25 C-52,72 -108,112 -162,122 C-118,82 -62,48 -15,25" />
      <path d="M-28,0 C-85,15 -152,5 -205,-15 C-152,-25 -85,-12 -28,0" />
      <path d="M-22,-18 C-68,-52 -100,-105 -105,-158 C-65,-118 -35,-62 -22,-18" />
    </g>

    <!-- Smaller rosette - top right -->
    <g transform="translate(900, 180) scale(0.55)">
      <ellipse cx="0" cy="0" rx="15" ry="18" fill-opacity="0.15"/>
      <path d="M0,-18 C12,-40 8,-70 0,-88 C-8,-70 -12,-40 0,-18" />
      <path d="M16,-6 C38,-20 62,-25 82,-18 C65,-10 38,-4 16,-6" />
      <path d="M12,12 C32,28 48,55 48,76 C32,62 18,36 12,12" />
      <path d="M-4,17 C-15,42 -36,60 -56,67 C-42,48 -18,28 -4,17" />
      <path d="M-16,-4 C-38,-12 -62,-6 -80,7 C-58,10 -34,6 -16,-4" />
      <path d="M-8,-22 C-4,-72 12,-125 -4,-168 C-20,-125 -24,-72 -8,-22" />
      <path d="M22,4 C65,-12 115,-8 155,10 C118,18 68,14 22,4" />
      <path d="M18,18 C55,45 85,92 88,138 C58,105 32,55 18,18" />
      <path d="M-6,22 C-25,65 -62,95 -98,105 C-72,70 -32,38 -6,22" />
      <path d="M-22,-2 C-65,12 -115,6 -155,-10 C-115,-18 -65,-10 -22,-2" />
    </g>

    <!-- Small rosette - bottom left -->
    <g transform="translate(250, 620) scale(0.45)">
      <ellipse cx="0" cy="0" rx="14" ry="16" fill-opacity="0.15"/>
      <path d="M0,-16 C10,-35 7,-62 0,-78 C-7,-62 -10,-35 0,-16" />
      <path d="M14,-5 C34,-18 55,-22 72,-16 C58,-8 34,-3 14,-5" />
      <path d="M10,10 C28,24 42,48 42,66 C28,54 16,32 10,10" />
      <path d="M-3,15 C-13,36 -32,52 -50,58 C-36,42 -16,24 -3,15" />
      <path d="M-14,-3 C-34,-10 -55,-5 -70,6 C-52,8 -30,5 -14,-3" />
      <path d="M-7,-20 C-3,-65 10,-110 -3,-148 C-17,-110 -20,-65 -7,-20" />
      <path d="M20,3 C58,-10 100,-7 135,8 C102,15 58,12 20,3" />
      <path d="M15,16 C48,38 75,80 78,120 C50,92 28,48 15,16" />
      <path d="M-5,19 C-22,56 -55,82 -85,92 C-62,62 -28,33 -5,19" />
      <path d="M-20,-1 C-58,10 -100,5 -135,-8 C-100,-15 -58,-8 -20,-1" />
    </g>

    <!-- Tiny accent rosette -->
    <g transform="translate(1000, 550) scale(0.35)">
      <ellipse cx="0" cy="0" rx="12" ry="14" fill-opacity="0.15"/>
      <path d="M0,-14 C8,-30 6,-52 0,-66 C-6,-52 -8,-30 0,-14" />
      <path d="M12,-4 C28,-14 46,-18 60,-12 C48,-6 28,-2 12,-4" />
      <path d="M8,8 C22,20 34,40 34,56 C22,46 12,26 8,8" />
      <path d="M-3,12 C-10,30 -26,44 -42,50 C-30,36 -12,20 -3,12" />
      <path d="M-12,-2 C-28,-8 -46,-4 -58,5 C-42,7 -24,4 -12,-2" />
    </g>
  </g>

  <text x="600" y="885" text-anchor="middle" fill="#5C6148" fill-opacity="0.3" font-family="sans-serif" font-size="11">succulent</text>
</svg>